HIERARCHY
ROOT Hips
{
	OFFSET 0.00000 0.00000 0.00000
	CHANNELS 6 Xposition Yposition Zposition Zrotation Yrotation Xrotation 
	JOINT RightUpLegDummy
	{
		OFFSET 0 0 0
		CHANNELS 3 Zrotation Yrotation Xrotation
		JOINT RightUpLeg
		{
			OFFSET -3.52197 -3.41223 0.04002
			CHANNELS 3 Zrotation Yrotation Xrotation
			JOINT RightLeg
			{
				OFFSET 0.00006 -17.42390 1.60435
				CHANNELS 3 Zrotation Yrotation Xrotation
				JOINT RightFoot
				{
					OFFSET 0.06154 -16.50078 -1.63900
					CHANNELS 3 Zrotation Yrotation Xrotation
					JOINT RightToes
					{
						OFFSET 0.00298 -1.73825 3.34613
						CHANNELS 3 Zrotation Yrotation Xrotation
						End Site
						{
							OFFSET 0.00000 0.00000 0.00000
						}
					}
				}
			}
		}
	}
	JOINT SpineDummy
	{
		OFFSET 0 0 0
		CHANNELS 3 Zrotation Yrotation Xrotation
		JOINT Spine
		{
			OFFSET 0.00000 4.68130 0.00000
			CHANNELS 3 Zrotation Yrotation Xrotation
			JOINT Spine1
			{
				OFFSET -0.00000 10.10138 0.05002
				CHANNELS 3 Zrotation Yrotation Xrotation
				JOINT HEadDummy
				{
					OFFSET 0 0 0
					CHANNELS 3 Zrotation Yrotation Xrotation
					JOINT Head
					{
						OFFSET -0.00000 3.43865 0.00438
						CHANNELS 3 Zrotation Yrotation Xrotation
						End Site
						{
							OFFSET 0.00000 0.00000 0.00000
						}
					}
				}
				JOINT LeftShoulder1Dummy
				{
					OFFSET 0 0 0
					CHANNELS 3 Zrotation Yrotation Xrotation
					JOINT LeftShoulder1
					{
						OFFSET 3.53937 -0.14262 -0.08662
						CHANNELS 3 Zrotation Yrotation Xrotation
						JOINT LeftArm
						{
							OFFSET 4.04833 -0.00133 0.12681
							CHANNELS 3 Zrotation Yrotation Xrotation
							JOINT LeftForeArm
							{
								OFFSET 10.33880 -0.01036 -0.55515
								CHANNELS 3 Zrotation Yrotation Xrotation
								JOINT LeftHand
								{
									OFFSET 8.69677 0.07543 0.40060
									CHANNELS 3 Zrotation Yrotation Xrotation
									End Site
									{
										OFFSET 0.00000 0.00000 0.00000
									}
								}
							}
						}
					}
				}
				JOINT RightShoulderDummy
				{
					OFFSET 0 0 0
					CHANNELS 3 Zrotation Yrotation Xrotation
					JOINT RightShoulder
					{
						OFFSET -3.53937 -0.14262 -0.08660
						CHANNELS 3 Zrotation Yrotation Xrotation
						JOINT RightArm
						{
							OFFSET -4.04833 -0.00133 0.12683
							CHANNELS 3 Zrotation Yrotation Xrotation
							JOINT RightForeArm
							{
								OFFSET -10.37987 -0.01039 -0.55511
								CHANNELS 3 Zrotation Yrotation Xrotation
								JOINT RightHand
								{
									OFFSET -8.67398 0.07538 0.40058
									CHANNELS 3 Zrotation Yrotation Xrotation
									End Site
									{
										OFFSET 0.00000 0.00000 0.00000
									}
								}
							}
						}
					}
				}
			}
		}
	}
	JOINT LeftUpLegDummy
	{
		OFFSET 0 0 0
		CHANNELS 3 Zrotation Yrotation Xrotation
		JOINT LeftUpLeg
		{
			OFFSET 3.52197 -3.41223 0.04002
			CHANNELS 3 Zrotation Yrotation Xrotation
			JOINT LeftLeg
			{
				OFFSET -0.00012 -17.42399 1.60337
				CHANNELS 3 Zrotation Yrotation Xrotation
				JOINT LeftFoot
				{
					OFFSET -0.09972 -16.50070 -1.63802
					CHANNELS 3 Zrotation Yrotation Xrotation
					JOINT LeftToes
					{
						OFFSET -0.01575 -1.73823 3.34611
						CHANNELS 3 Zrotation Yrotation Xrotation
						End Site
						{
							OFFSET 0.00000 0.00000 0.00000
						}
					}
				}
			}
		}
	}
}
MOTION
Frames: 9
Frame Time: 0.033333
-21.1913 38.9868 -36.7041 -7.2104 -36.4847 3.1519 0.0000 0.0000 0.0000 -8.4108 -12.1438 -10.8021 3.4707 7.3437 20.6821 16.4764 -0.5725 -7.5822 -0.0000 0.0000 -0.0000 0.0000 0.0000 0.0000 9.5034 -2.3704 3.3079 0.9762 -2.3451 11.0416 0.0000 0.0000 0.0000 -12.5727 12.2933 -9.7472 0.0000 0.0000 0.0000 -49.1791 -13.2118 9.4157 -33.0782 -0.2046 -2.6272 0.7861 -26.1867 25.8436 5.3221 0.0205 -0.2441 0.0000 0.0000 0.0000 40.6581 10.1139 6.3916 31.1305 -0.8136 5.1631 4.7668 14.9696 1.4663 -21.7589 4.2783 -1.8099 0.0000 0.0000 0.0000 3.9162 -1.3553 -16.0658 4.0852 1.3381 62.7725 -1.9287 0.1092 -7.3952 0.0000 -0.0000 0.0000
-22.0830 39.3760 -36.3648 -5.2879 -31.8802 2.6473 0.0000 0.0000 0.0000 -9.4587 -14.3921 -7.9276 2.5962 5.3266 18.7483 16.1674 -0.4687 -8.2618 -0.0000 0.0000 -0.0000 0.0000 0.0000 0.0000 8.3692 -1.7461 3.3914 0.6827 -1.6835 10.3567 0.0000 0.0000 0.0000 -11.8821 12.0736 -9.6781 0.0000 0.0000 0.0000 -49.2688 -13.2092 9.4314 -32.8196 0.9723 -0.3007 0.5690 -23.6163 22.7613 5.3221 0.0205 -0.2441 0.0000 0.0000 0.0000 40.5270 10.0826 6.3580 30.7528 2.3697 5.9369 4.2063 16.1281 -0.5585 -21.7332 4.1814 -1.7899 0.0000 0.0000 0.0000 1.9412 3.9782 -21.0857 3.1251 0.8634 63.9517 -3.2550 0.1357 -8.3301 0.0000 -0.0000 0.0000
-22.9245 39.6733 -35.9452 -3.8506 -26.3884 2.6502 0.0000 0.0000 0.0000 -10.3818 -16.1296 -4.7338 1.8276 1.6289 16.6936 15.3476 -0.3495 -8.9984 -0.0000 0.0000 -0.0000 0.0000 0.0000 0.0000 7.8201 -1.5798 3.3073 0.1127 -1.4109 9.7169 0.0000 0.0000 0.0000 -11.5763 11.1992 -9.7097 0.0000 0.0000 0.0000 -49.1982 -13.2700 9.4521 -32.1111 3.0742 0.8184 0.3586 -22.6836 21.8108 5.3221 0.0205 -0.2441 0.0000 0.0000 0.0000 40.1519 9.9558 6.2452 30.9296 4.9274 7.5859 2.6854 19.0684 -4.0344 -21.3630 3.8551 -1.6989 0.0000 0.0000 0.0000 -0.6549 7.0333 -25.9159 2.3528 0.6254 62.9768 -4.3266 0.1535 -8.6574 0.0000 -0.0000 0.0000
-23.7213 39.9004 -35.4532 -2.6486 -20.8839 2.8731 0.0000 0.0000 0.0000 -11.2190 -16.0708 -1.3724 1.3668 -3.7690 14.3737 14.4200 -0.2751 -9.4448 -0.0000 0.0000 -0.0000 0.0000 0.0000 0.0000 7.4179 -1.3519 3.4184 -0.5528 -1.0562 8.9399 0.0000 0.0000 0.0000 -11.1914 9.6273 -9.8945 0.0000 0.0000 0.0000 -48.9171 -13.2453 9.3844 -31.2720 5.1151 1.6796 0.2332 -22.2271 22.0446 5.3221 0.0205 -0.2441 0.0000 0.0000 0.0000 39.9080 9.8107 6.1436 30.7747 6.3160 7.6584 0.9615 23.9868 -6.3810 -20.9891 3.3886 -1.5846 0.0000 0.0000 0.0000 -3.5376 8.4036 -30.1826 3.3963 1.2481 59.9734 -3.9809 0.1401 -8.8547 0.0000 -0.0000 0.0000
-24.4622 40.0582 -34.8957 -1.4728 -16.2538 3.2363 0.0000 0.0000 0.0000 -11.9598 -15.0949 1.7781 1.5517 -9.0165 11.8512 14.3042 -0.2142 -9.9264 -0.0000 0.0000 -0.0000 0.0000 0.0000 0.0000 7.0207 -0.7924 3.5840 -1.4491 -0.3205 8.3993 0.0000 0.0000 0.0000 -11.0272 7.6351 -10.1447 0.0000 0.0000 0.0000 -48.6636 -13.1033 9.2569 -30.2903 6.8015 2.1427 0.1406 -21.9301 22.2634 5.3221 0.0205 -0.2441 0.0000 0.0000 0.0000 39.9477 9.7136 6.1045 29.7731 7.0862 3.8102 0.9008 29.9126 -5.6251 -20.8241 2.8830 -1.4820 0.0000 0.0000 0.0000 -6.4445 9.3194 -33.6027 4.5768 2.2579 54.9827 -2.8585 0.1075 -9.2473 0.0000 -0.0000 0.0000
-25.1386 40.1024 -34.2655 -0.5588 -12.4386 3.7292 0.0000 0.0000 0.0000 -12.2705 -14.1629 4.5694 2.0387 -13.4626 9.6481 14.5474 -0.1186 -10.7293 -0.0000 0.0000 -0.0000 0.0000 0.0000 0.0000 6.9481 -0.1485 3.6952 -2.5012 0.5512 8.3075 0.0000 0.0000 0.0000 -10.7354 5.4517 -10.7104 0.0000 0.0000 0.0000 -48.4538 -12.9536 9.1343 -29.2398 8.3753 1.7391 0.0824 -21.8175 21.7452 5.3221 0.0205 -0.2441 0.0000 0.0000 0.0000 39.9557 9.6449 6.0740 28.4824 8.1232 0.7983 1.0107 35.5350 -6.3149 -20.6638 2.4685 -1.3973 0.0000 0.0000 0.0000 -8.7496 9.6985 -35.9225 4.4088 2.8635 48.2130 -2.3306 0.1010 -9.0654 0.0000 -0.0000 0.0000
-25.7512 40.0553 -33.5537 0.0208 -9.4438 4.1233 0.0000 0.0000 0.0000 -11.9714 -13.4781 6.9781 2.1626 -17.0634 8.1311 14.1088 -0.0264 -11.4784 -0.0000 0.0000 -0.0000 0.0000 0.0000 0.0000 7.1482 0.4426 4.0879 -3.6175 1.4213 8.3342 0.0000 0.0000 0.0000 -10.2434 3.6594 -11.5181 0.0000 0.0000 0.0000 -48.1397 -12.8224 9.0034 -28.4695 10.0852 0.0713 0.0308 -21.6972 20.7747 5.3221 0.0205 -0.2441 0.0000 0.0000 0.0000 39.7437 9.5573 6.0043 27.2180 9.7275 -1.4274 1.1017 39.9216 -6.8847 -20.0703 2.0527 -1.2854 0.0000 0.0000 0.0000 -10.0518 9.3311 -36.7736 3.3068 2.8586 39.6634 -2.1659 0.1137 -7.7678 0.0000 -0.0000 0.0000
-26.3000 39.9603 -32.7476 0.4840 -7.6202 4.2943 0.0000 0.0000 0.0000 -11.5921 -13.0185 9.1322 2.0626 -19.1339 7.0733 13.6516 0.0530 -12.1606 -0.0000 0.0000 -0.0000 0.0000 0.0000 0.0000 7.2052 1.0805 4.8609 -4.7708 2.3991 8.3002 0.0000 0.0000 0.0000 -9.6260 2.5546 -12.4251 0.0000 0.0000 0.0000 -47.7558 -12.6476 8.8371 -28.2749 12.0038 -2.8295 -0.0770 -21.2511 19.8731 5.3221 0.0205 -0.2441 0.0000 0.0000 0.0000 39.5292 9.5170 5.9563 25.9339 11.6363 -3.1364 1.1208 42.8719 -6.3784 -19.0290 1.3573 -1.1047 0.0000 0.0000 0.0000 -10.6830 8.8730 -36.3118 2.0307 2.3163 29.7184 -1.3926 0.1019 -5.6284 0.0000 -0.0000 0.0000
-26.7802 39.7799 -31.8045 0.8667 -6.7589 4.3600 0.0000 0.0000 0.0000 -11.5617 -12.7246 11.2934 2.1648 -19.5506 6.2827 14.4432 0.1899 -13.2204 -0.0000 0.0000 -0.0000 0.0000 0.0000 0.0000 7.0928 1.7282 5.5499 -5.8690 3.3964 8.3799 0.0000 0.0000 0.0000 -9.0547 1.8939 -13.3060 0.0000 0.0000 0.0000 -47.3577 -12.4548 8.6601 -28.6641 14.0473 -6.0725 -0.3123 -20.2194 18.8936 5.3221 0.0205 -0.2441 0.0000 0.0000 0.0000 39.4667 9.6256 5.9973 24.6968 13.4731 -4.2617 1.1073 44.6797 -5.6246 -18.1521 0.5311 -0.9248 0.0000 0.0000 0.0000 -10.9318 8.6298 -35.3931 0.9951 1.4475 20.5189 -0.2107 0.0375 -3.7675 0.0000 -0.0000 0.0000
